<svg xmlns="http://www.w3.org/2000/svg" width="12.984" height="15.886" viewBox="1.023 253.1 12.984 15.886"><path d="M12.531 253.1H2.498a1.461 1.461 0 0 0-1.475 1.444V264.8c0 .555.34 1.047.869 1.252l7.312 2.838a1.393 1.393 0 0 0 .508.095h2.82a1.461 1.461 0 0 0 1.474-1.443v-13a1.461 1.461 0 0 0-1.475-1.443Zm.492 14.443c0 .265-.22.481-.492.481H9.738l-4.98-4.587a1.482 1.482 0 0 0-.879-.388 1.492 1.492 0 0 0-1.207.444l-.666.688v-9.637a.487.487 0 0 1 .492-.481H12.53a.487.487 0 0 1 .492.48v13Zm-10.652-2.34 1.015-1.048a.494.494 0 0 1 .319-.149.5.5 0 0 1 .363.118.5.5 0 0 1 .014.013l3.249 2.992-4.96-1.925Z" fill-rule="evenodd" data-name="Shape 100 copy 5"/></svg>